<?xml version="1.0" encoding="UTF-8"?>
<svg width="24" height="24" viewBox="0 0 24 24" fill="none" xmlns="http://www.w3.org/2000/svg">
    <path d="M12 24C18.6274 24 24 18.6274 24 12C24 5.37258 18.6274 0 12 0C5.37258 0 0 5.37258 0 12C0 18.6274 5.37258 24 12 24ZM12 22C17.0993 22 22 17.0993 22 12C22 6.9007 17.0993 2 12 2C6.9007 2 2 6.9007 2 12C2 17.0993 6.9007 22 12 22ZM12 18C14.7614 18 17 15.7614 17 13C17 10.2386 14.7614 8 12 8C9.23858 8 7 10.2386 7 13C7 15.7614 9.23858 18 12 18ZM12 10C13.1046 10 14 10.8954 14 12C14 13.1046 13.1046 14 12 14C10.8954 14 10 13.1046 10 12C10 10.8954 10.8954 10 12 10Z" fill="currentColor"/>
</svg>
